<?xml version="1.0" encoding="UTF-8"?>
<!--Generator: Apple Native CoreSVG 341-->
<!DOCTYPE svg
PUBLIC "-//W3C//DTD SVG 1.1//EN"
       "http://www.w3.org/Graphics/SVG/1.1/DTD/svg11.dtd">
<svg version="1.1" xmlns="http://www.w3.org/2000/svg" xmlns:xlink="http://www.w3.org/1999/xlink" viewBox="0 0 3300 2200">
 <!--glyph: "", point size: 100.0, font version: "20.0d8e1", template writer version: "138.0.0"-->
 <style>.monochrome-0 {-sfsymbols-motion-group:0;-sfsymbols-layer-tags:2757e310fd29e074 brazilianrealsign}

.multicolor-0:tintColor {-sfsymbols-motion-group:0;-sfsymbols-layer-tags:2757e310fd29e074 brazilianrealsign}

.hierarchical-0:primary {-sfsymbols-motion-group:0;-sfsymbols-layer-tags:2757e310fd29e074 brazilianrealsign}

.SFSymbolsPreviewWireframe {fill:none;opacity:1.0;stroke:black;stroke-width:0.5}
</style>
 <g id="Notes">
  <rect height="2200" id="artboard" style="fill:white;opacity:1" width="3300" x="0" y="0"/>
  <line style="fill:none;stroke:black;opacity:1;stroke-width:0.5;" x1="263" x2="3036" y1="292" y2="292"/>
  <text style="stroke:none;fill:black;font-family:sans-serif;font-size:13;font-weight:bold;" transform="matrix(1 0 0 1 263 322)">Weight/Scale Variations</text>
  <text style="stroke:none;fill:black;font-family:sans-serif;font-size:13;text-anchor:middle;" transform="matrix(1 0 0 1 559.711 322)">Ultralight</text>
  <text style="stroke:none;fill:black;font-family:sans-serif;font-size:13;text-anchor:middle;" transform="matrix(1 0 0 1 856.422 322)">Thin</text>
  <text style="stroke:none;fill:black;font-family:sans-serif;font-size:13;text-anchor:middle;" transform="matrix(1 0 0 1 1153.13 322)">Light</text>
  <text style="stroke:none;fill:black;font-family:sans-serif;font-size:13;text-anchor:middle;" transform="matrix(1 0 0 1 1449.84 322)">Regular</text>
  <text style="stroke:none;fill:black;font-family:sans-serif;font-size:13;text-anchor:middle;" transform="matrix(1 0 0 1 1746.56 322)">Medium</text>
  <text style="stroke:none;fill:black;font-family:sans-serif;font-size:13;text-anchor:middle;" transform="matrix(1 0 0 1 2043.27 322)">Semibold</text>
  <text style="stroke:none;fill:black;font-family:sans-serif;font-size:13;text-anchor:middle;" transform="matrix(1 0 0 1 2339.98 322)">Bold</text>
  <text style="stroke:none;fill:black;font-family:sans-serif;font-size:13;text-anchor:middle;" transform="matrix(1 0 0 1 2636.69 322)">Heavy</text>
  <text style="stroke:none;fill:black;font-family:sans-serif;font-size:13;text-anchor:middle;" transform="matrix(1 0 0 1 2933.4 322)">Black</text>
  <line style="fill:none;stroke:black;opacity:1;stroke-width:0.5;" x1="263" x2="3036" y1="1903" y2="1903"/>
  <g transform="matrix(0.2 0 0 0.2 263 1933)">
   <path d="m46.2402 4.15039c21.7773 0 39.4531-17.627 39.4531-39.4043s-17.6758-39.4043-39.4531-39.4043c-21.7285 0-39.4043 17.627-39.4043 39.4043s17.6758 39.4043 39.4043 39.4043Zm0-7.42188c-17.6758 0-31.9336-14.3066-31.9336-31.9824s14.2578-31.9824 31.9336-31.9824 31.9824 14.3066 31.9824 31.9824-14.3066 31.9824-31.9824 31.9824Zm-17.9688-31.9824c0 2.14844 1.51367 3.61328 3.75977 3.61328h10.498v10.5957c0 2.19727 1.46484 3.71094 3.61328 3.71094 2.24609 0 3.71094-1.51367 3.71094-3.71094v-10.5957h10.5957c2.19727 0 3.71094-1.46484 3.71094-3.61328 0-2.19727-1.51367-3.71094-3.71094-3.71094h-10.5957v-10.5469c0-2.24609-1.46484-3.75977-3.71094-3.75977-2.14844 0-3.61328 1.51367-3.61328 3.75977v10.5469h-10.498c-2.24609 0-3.75977 1.51367-3.75977 3.71094Z"/>
  </g>
  <g transform="matrix(0.2 0 0 0.2 281.506 1933)">
   <path d="m58.5449 14.5508c27.4902 0 49.8047-22.3145 49.8047-49.8047s-22.3145-49.8047-49.8047-49.8047-49.8047 22.3145-49.8047 49.8047 22.3145 49.8047 49.8047 49.8047Zm0-8.30078c-22.9492 0-41.5039-18.5547-41.5039-41.5039s18.5547-41.5039 41.5039-41.5039 41.5039 18.5547 41.5039 41.5039-18.5547 41.5039-41.5039 41.5039Zm-22.6562-41.5039c0 2.39258 1.66016 4.00391 4.15039 4.00391h14.3555v14.4043c0 2.44141 1.66016 4.15039 4.05273 4.15039 2.44141 0 4.15039-1.66016 4.15039-4.15039v-14.4043h14.4043c2.44141 0 4.15039-1.61133 4.15039-4.00391 0-2.44141-1.70898-4.15039-4.15039-4.15039h-14.4043v-14.3555c0-2.49023-1.70898-4.19922-4.15039-4.19922-2.39258 0-4.05273 1.70898-4.05273 4.19922v14.3555h-14.3555c-2.49023 0-4.15039 1.70898-4.15039 4.15039Z"/>
  </g>
  <g transform="matrix(0.2 0 0 0.2 304.924 1933)">
   <path d="m74.8535 28.3203c35.1074 0 63.623-28.4668 63.623-63.5742s-28.5156-63.623-63.623-63.623-63.5742 28.5156-63.5742 63.623 28.4668 63.5742 63.5742 63.5742Zm0-9.08203c-30.127 0-54.4922-24.3652-54.4922-54.4922s24.3652-54.4922 54.4922-54.4922 54.4922 24.3652 54.4922 54.4922-24.3652 54.4922-54.4922 54.4922Zm-28.8574-54.4922c0 2.58789 1.85547 4.39453 4.58984 4.39453h19.7266v19.7754c0 2.68555 1.85547 4.58984 4.44336 4.58984 2.68555 0 4.54102-1.85547 4.54102-4.58984v-19.7754h19.7754c2.68555 0 4.58984-1.80664 4.58984-4.39453 0-2.73438-1.85547-4.58984-4.58984-4.58984h-19.7754v-19.7266c0-2.73438-1.85547-4.63867-4.54102-4.63867-2.58789 0-4.44336 1.9043-4.44336 4.63867v19.7266h-19.7266c-2.73438 0-4.58984 1.85547-4.58984 4.58984Z"/>
  </g>
  <text style="stroke:none;fill:black;font-family:sans-serif;font-size:13;font-weight:bold;" transform="matrix(1 0 0 1 263 1953)">Design Variations</text>
  <text style="stroke:none;fill:black;font-family:sans-serif;font-size:13;" transform="matrix(1 0 0 1 263 1971)">Symbols are supported in up to nine weights and three scales.</text>
  <text style="stroke:none;fill:black;font-family:sans-serif;font-size:13;" transform="matrix(1 0 0 1 263 1989)">For optimal layout with text and other symbols, vertically align</text>
  <text style="stroke:none;fill:black;font-family:sans-serif;font-size:13;" transform="matrix(1 0 0 1 263 2007)">symbols with the adjacent text.</text>
  <line style="fill:none;stroke:#00AEEF;stroke-width:0.5;opacity:1.0;" x1="776" x2="776" y1="1919" y2="1933"/>
  <g transform="matrix(0.2 0 0 0.2 776 1933)">
   <path d="m16.5527 0.78125c2.58789 0 3.85742-0.976562 4.78516-3.71094l6.29883-17.2363h28.8086l6.29883 17.2363c0.927734 2.73438 2.19727 3.71094 4.73633 3.71094 2.58789 0 4.24805-1.5625 4.24805-4.00391 0-0.830078-0.146484-1.61133-0.537109-2.63672l-22.9004-60.9863c-1.12305-2.97852-3.125-4.49219-6.25-4.49219-3.02734 0-5.07812 1.46484-6.15234 4.44336l-22.9004 61.084c-0.390625 1.02539-0.537109 1.80664-0.537109 2.63672 0 2.44141 1.5625 3.95508 4.10156 3.95508Zm13.4766-28.3691 11.8652-32.8613h0.244141l11.8652 32.8613Z"/>
  </g>
  <line style="fill:none;stroke:#00AEEF;stroke-width:0.5;opacity:1.0;" x1="792.836" x2="792.836" y1="1919" y2="1933"/>
  <text style="stroke:none;fill:black;font-family:sans-serif;font-size:13;font-weight:bold;" transform="matrix(1 0 0 1 776 1953)">Margins</text>
  <text style="stroke:none;fill:black;font-family:sans-serif;font-size:13;" transform="matrix(1 0 0 1 776 1971)">Leading and trailing margins on the left and right side of each symbol</text>
  <text style="stroke:none;fill:black;font-family:sans-serif;font-size:13;" transform="matrix(1 0 0 1 776 1989)">can be adjusted by modifying the x-location of the margin guidelines.</text>
  <text style="stroke:none;fill:black;font-family:sans-serif;font-size:13;" transform="matrix(1 0 0 1 776 2007)">Modifications are automatically applied proportionally to all</text>
  <text style="stroke:none;fill:black;font-family:sans-serif;font-size:13;" transform="matrix(1 0 0 1 776 2025)">scales and weights.</text>
  <g transform="matrix(0.2 0 0 0.2 1289 1933)">
   <path d="m14.209 9.32617 8.49609 8.54492c4.29688 4.3457 9.22852 4.05273 13.8672-1.07422l53.4668-58.9355-4.83398-4.88281-53.0762 58.3984c-1.75781 2.00195-3.41797 2.49023-5.76172 0.146484l-5.85938-5.81055c-2.34375-2.29492-1.80664-4.00391 0.195312-5.81055l57.373-54.0039-4.88281-4.83398-57.959 54.4434c-4.93164 4.58984-5.32227 9.47266-1.02539 13.8184Zm32.0801-90.9668c-2.09961 2.05078-2.24609 4.93164-1.07422 6.88477 1.17188 1.80664 3.4668 2.97852 6.68945 2.14844 7.32422-1.70898 14.9414-2.00195 22.0703 2.68555l-2.92969 7.27539c-1.70898 4.15039-0.830078 7.08008 1.85547 9.81445l11.4746 11.5723c2.44141 2.44141 4.49219 2.53906 7.32422 2.05078l5.32227-0.976562 3.32031 3.36914-0.195312 2.7832c-0.195312 2.49023 0.439453 4.39453 2.88086 6.78711l3.80859 3.71094c2.39258 2.39258 5.46875 2.53906 7.8125 0.195312l14.5508-14.5996c2.34375-2.34375 2.24609-5.32227-0.146484-7.71484l-3.85742-3.80859c-2.39258-2.39258-4.24805-3.17383-6.64062-2.97852l-2.88086 0.244141-3.22266-3.17383 1.2207-5.61523c0.634766-2.83203-0.146484-5.0293-3.07617-7.95898l-10.9863-10.9375c-16.6992-16.6016-38.8672-16.2109-53.3203-1.75781Zm7.4707 1.85547c12.1582-8.88672 28.6133-7.37305 39.7461 3.75977l12.1582 12.0605c1.17188 1.17188 1.36719 2.09961 1.02539 3.80859l-1.61133 7.42188 7.51953 7.42188 4.93164-0.292969c1.26953-0.0488281 1.66016 0.0488281 2.63672 1.02539l2.88086 2.88086-12.207 12.207-2.88086-2.88086c-0.976562-0.976562-1.12305-1.36719-1.07422-2.68555l0.341797-4.88281-7.4707-7.42188-7.61719 1.26953c-1.61133 0.341797-2.34375 0.195312-3.56445-0.976562l-10.0098-10.0098c-1.26953-1.17188-1.41602-2.00195-0.634766-3.85742l4.39453-10.4492c-7.8125-7.27539-17.9688-10.4004-28.125-7.42188-0.78125 0.195312-1.07422-0.439453-0.439453-0.976562Z"/>
  </g>
  <text style="stroke:none;fill:black;font-family:sans-serif;font-size:13;font-weight:bold;" transform="matrix(1 0 0 1 1289 1953)">Exporting</text>
  <text style="stroke:none;fill:black;font-family:sans-serif;font-size:13;" transform="matrix(1 0 0 1 1289 1971)">Symbols should be outlined when exporting to ensure the</text>
  <text style="stroke:none;fill:black;font-family:sans-serif;font-size:13;" transform="matrix(1 0 0 1 1289 1989)">design is preserved when submitting to Xcode.</text>
  <text id="template-version" style="stroke:none;fill:black;font-family:sans-serif;font-size:13;text-anchor:end;" transform="matrix(1 0 0 1 3036 1933)">Template v.6.0</text>
  <text style="stroke:none;fill:black;font-family:sans-serif;font-size:13;text-anchor:end;" transform="matrix(1 0 0 1 3036 1951)">Requires Xcode 16 or greater</text>
  <text id="descriptive-name" style="stroke:none;fill:black;font-family:sans-serif;font-size:13;text-anchor:end;" transform="matrix(1 0 0 1 3036 1969)">Generated from custom.brazilianrealsign</text>
  <text style="stroke:none;fill:black;font-family:sans-serif;font-size:13;text-anchor:end;" transform="matrix(1 0 0 1 3036 1987)">Typeset at 100.0 points</text>
  <text style="stroke:none;fill:black;font-family:sans-serif;font-size:13;" transform="matrix(1 0 0 1 263 726)">Small</text>
  <text style="stroke:none;fill:black;font-family:sans-serif;font-size:13;" transform="matrix(1 0 0 1 263 1156)">Medium</text>
  <text style="stroke:none;fill:black;font-family:sans-serif;font-size:13;" transform="matrix(1 0 0 1 263 1586)">Large</text>
 </g>
 <g id="Guides">
  <g id="H-reference" style="fill:#27AAE1;stroke:none;" transform="matrix(1 0 0 1 339 696)">
   <path d="M0.993654 0L3.63775 0L29.3281-67.1323L30.0303-67.1323L30.0303-70.459L28.1226-70.459ZM11.6885-24.4799L46.9815-24.4799L46.2315-26.7285L12.4385-26.7285ZM55.1196 0L57.7637 0L30.6382-70.459L29.4326-70.459L29.4326-67.1323Z"/>
  </g>
  <line id="Baseline-S" style="fill:none;stroke:#27AAE1;opacity:1;stroke-width:0.5;" x1="263" x2="3036" y1="696" y2="696"/>
  <line id="Capline-S" style="fill:none;stroke:#27AAE1;opacity:1;stroke-width:0.5;" x1="263" x2="3036" y1="625.541" y2="625.541"/>
  <g id="H-reference" style="fill:#27AAE1;stroke:none;" transform="matrix(1 0 0 1 339 1126)">
   <path d="M0.993654 0L3.63775 0L29.3281-67.1323L30.0303-67.1323L30.0303-70.459L28.1226-70.459ZM11.6885-24.4799L46.9815-24.4799L46.2315-26.7285L12.4385-26.7285ZM55.1196 0L57.7637 0L30.6382-70.459L29.4326-70.459L29.4326-67.1323Z"/>
  </g>
  <line id="Baseline-M" style="fill:none;stroke:#27AAE1;opacity:1;stroke-width:0.5;" x1="263" x2="3036" y1="1126" y2="1126"/>
  <line id="Capline-M" style="fill:none;stroke:#27AAE1;opacity:1;stroke-width:0.5;" x1="263" x2="3036" y1="1055.54" y2="1055.54"/>
  <g id="H-reference" style="fill:#27AAE1;stroke:none;" transform="matrix(1 0 0 1 339 1556)">
   <path d="M0.993654 0L3.63775 0L29.3281-67.1323L30.0303-67.1323L30.0303-70.459L28.1226-70.459ZM11.6885-24.4799L46.9815-24.4799L46.2315-26.7285L12.4385-26.7285ZM55.1196 0L57.7637 0L30.6382-70.459L29.4326-70.459L29.4326-67.1323Z"/>
  </g>
  <line id="Baseline-L" style="fill:none;stroke:#27AAE1;opacity:1;stroke-width:0.5;" x1="263" x2="3036" y1="1556" y2="1556"/>
  <line id="Capline-L" style="fill:none;stroke:#27AAE1;opacity:1;stroke-width:0.5;" x1="263" x2="3036" y1="1485.54" y2="1485.54"/>
  <line id="right-margin-Black-S" style="fill:none;stroke:#00AEEF;stroke-width:0.5;opacity:1.0;" x1="3001.54" x2="3001.54" y1="600.785" y2="720.121"/>
  <line id="left-margin-Black-S" style="fill:none;stroke:#00AEEF;stroke-width:0.5;opacity:1.0;" x1="2865.26" x2="2865.26" y1="600.785" y2="720.121"/>
  <line id="right-margin-Regular-S" style="fill:none;stroke:#00AEEF;stroke-width:0.5;opacity:1.0;" x1="1507.61" x2="1507.61" y1="600.785" y2="720.121"/>
  <line id="left-margin-Regular-S" style="fill:none;stroke:#00AEEF;stroke-width:0.5;opacity:1.0;" x1="1392.08" x2="1392.08" y1="600.785" y2="720.121"/>
  <line id="right-margin-Ultralight-S" style="fill:none;stroke:#00AEEF;stroke-width:0.5;opacity:1.0;" x1="616.862" x2="616.862" y1="600.785" y2="720.121"/>
  <line id="left-margin-Ultralight-S" style="fill:none;stroke:#00AEEF;stroke-width:0.5;opacity:1.0;" x1="502.56" x2="502.56" y1="600.785" y2="720.121"/>
 </g>
 <g id="Symbols">
  <g id="Black-S" transform="matrix(1 0 0 1 2865.26 696)">
   <path class="monochrome-0 multicolor-0:tintColor hierarchical-0:primary SFSymbolsPreviewWireframe" d="M20.2637 1.17188C27.002 1.17188 30.5176-2.88086 30.5176-9.61914L30.5176-23.6328L34.1309-23.6328C34.375-23.6328 34.5703-23.6328 34.8145-23.6328L42.4805-6.10352C44.4824-1.5625 47.2168 1.17188 52.832 1.17188C59.082 1.17188 62.6953-2.83203 62.6953-8.78906C62.6953-11.9629 61.5234-14.3066 60.3027-16.6992L54.8828-27.2949C61.084-31.1523 64.0625-38.7695 64.0625-46.4844C64.0625-62.6953 53.8086-70.3613 37.1094-70.3613L20.3125-70.3613C14.1113-70.3613 9.76562-65.8691 9.76562-59.5215L9.76562-9.61914C9.76562-2.83203 13.4766 1.17188 20.2637 1.17188ZM30.5176-37.2559L30.5176-55.127L35.3027-55.127C40.0391-55.127 42.8223-50.9766 42.8223-46.1426C42.8223-41.1621 40.1855-37.2559 35.2051-37.2559ZM99.1211-1.02539C113.77-1.02539 126.514-7.8125 126.514-22.0703C126.514-33.252 119.287-37.8906 108.203-41.6504L100.586-44.2383C97.2656-45.3613 92.1875-46.3379 92.1875-50.4395C92.1875-53.9062 96.0449-55.1758 99.5117-55.1758C102.881-55.1758 105.713-54.1016 107.129-51.0742C108.838-47.4121 111.621-45.6543 115.625-45.6543C120.557-45.6543 124.268-48.0957 124.268-52.9785C124.268-54.541 123.926-55.9082 123.438-57.2266C120.264-65.8203 109.668-69.3848 99.5117-69.3848C85.5469-69.3848 73.3398-62.4512 73.3398-48.5352C73.3398-37.2559 80.4199-32.2266 91.1133-28.6621L98.9258-26.0742C104.639-24.1699 107.666-23.0469 107.666-19.7754C107.666-16.2109 102.832-15.2344 99.2676-15.2344C95.8984-15.2344 92.7246-16.0156 91.3086-19.5801C89.8438-23.2422 86.9629-25.1465 83.0078-25.1465C77.1484-25.1465 74.1211-21.7285 74.1211-17.2363C74.1211-15.6738 74.4629-14.3066 75.0977-12.8906C78.8086-4.29688 88.623-1.02539 99.1211-1.02539ZM99.8535 7.66602C100.879 7.66602 101.562 6.93359 101.562 5.85938L101.562-76.3672C101.562-77.4414 100.879-78.1738 99.8535-78.1738C98.8281-78.1738 98.0957-77.4414 98.0957-76.3672L98.0957 5.85938C98.0957 6.93359 98.8281 7.66602 99.8535 7.66602Z"/>
  </g>
  <g id="Regular-S" transform="matrix(1 0 0 1 1392.08 696)">
   <path class="monochrome-0 multicolor-0:tintColor hierarchical-0:primary SFSymbolsPreviewWireframe" d="M14.1602 1.02539C16.8945 1.02539 18.5547-0.683594 18.5547-3.4668L18.5547-28.4668L30.9082-28.4668C31.2012-28.4668 31.4453-28.4668 31.6895-28.4668L43.8477-1.75781C44.7754 0.292969 46.0938 1.02539 48.2422 1.02539C50.7324 1.02539 52.4902-0.683594 52.4902-2.97852C52.4902-3.80859 52.1973-4.83398 51.6113-6.00586L40.332-30.2734C48.291-33.4473 52.7344-40.9668 52.7344-49.9023C52.7344-62.8418 44.043-70.752 31.0547-70.752L14.0625-70.752C11.4746-70.752 9.76562-68.9941 9.76562-66.2598L9.76562-3.4668C9.76562-0.683594 11.4746 1.02539 14.1602 1.02539ZM18.5547-36.084L18.5547-62.9883L30.0293-62.9883C38.5742-62.9883 43.8965-58.1543 43.8965-49.6094C43.8965-41.4551 39.4043-36.084 30.3223-36.084ZM84.5703-0.927734C96.5332-0.927734 105.762-7.17773 105.762-19.1895C105.762-29.7852 98.7793-33.9355 89.6484-37.8418L83.0566-40.625C77.4902-43.0664 72.3145-46.2402 72.3145-52.3438C72.3145-58.7402 77.8809-62.1094 84.375-62.1094C91.3086-62.1094 94.9219-58.1543 96.4355-51.709C97.0215-49.5117 98.4863-48.1934 100.781-48.1934C103.174-48.1934 104.736-49.7559 104.736-52.1484C104.736-52.7344 104.639-53.9062 104.492-54.6387C102.246-64.5508 94.1406-69.6289 84.375-69.6289C73.1934-69.6289 63.916-63.3789 63.916-51.8066C63.916-42.0898 70.4102-37.0117 79.3945-33.3008L86.084-30.4688C92.2363-27.8809 97.3145-25.1465 97.3145-18.4082C97.3145-11.4746 91.9922-8.44727 84.6191-8.44727C76.8066-8.44727 72.7051-11.8164 71.1426-18.9941C70.6055-21.2402 69.1406-22.6562 66.8945-22.6562C64.4531-22.6562 62.8906-21.0449 62.8906-18.6035C62.8906-17.8223 62.9883-17.041 63.1348-16.3086C65.2832-5.95703 74.0234-0.927734 84.5703-0.927734ZM84.2773 8.10547C85.8887 8.10547 87.1094 6.93359 87.1094 5.27344L87.1094-75.7812C87.1094-77.4414 85.8887-78.6133 84.2773-78.6133C82.5684-78.6133 81.3965-77.4414 81.3965-75.7812L81.3965 5.27344C81.3965 6.93359 82.5684 8.10547 84.2773 8.10547Z"/>
  </g>
  <g id="Ultralight-S" transform="matrix(1 0 0 1 502.56 696)">
   <path class="monochrome-0 multicolor-0:tintColor hierarchical-0:primary SFSymbolsPreviewWireframe" d="M11.0723-1.15428C11.8086-1.15428 12.2881-1.68261 12.2881-2.51319L12.2881-31.6455L29.0918-31.6455C29.9751-31.6455 31.1274-31.7817 31.7349-31.8725L48.1162-1.89404C48.4082-1.38719 48.6821-1.15428 49.332-1.15428C50.0059-1.15428 50.5376-1.59179 50.5376-2.29737C50.5376-2.58253 50.3809-2.97218 50.2036-3.28127L34.2925-32.2715C44.8399-34.5371 49.4649-41.5117 49.4649-50.6743C49.4649-62.6602 41.3184-69.6621 28.7842-69.6621L11.02-69.6621C10.2485-69.6621 9.76562-69.1304 9.76562-68.3486L9.76562-2.51319C9.76562-1.68261 10.2485-1.15428 11.0723-1.15428ZM12.2881-33.9043L12.2881-67.3476L28.5762-67.3476C39.5732-67.3476 46.8935-61.6963 46.8935-50.6992C46.8935-39.8203 39.5859-33.9043 28.6421-33.9043ZM83.2988-2.78954C94.5806-2.78954 104.536-8.94872 104.536-19.5981C104.536-29.6489 96.1455-34.2534 87.2871-36.7066L80.9678-38.4907C72.9038-41.1138 65.73-44.3784 65.73-52.8887C65.73-61.5556 74.0664-66.4233 83.1035-66.4233C92.3984-66.4233 100.099-61.5146 100.795-52.4355C100.881-51.6914 101.256-51.1904 102.053-51.1904C102.947-51.1904 103.283-51.7539 103.283-52.3755C103.283-52.8252 103.231-53.4067 102.857-55.1836C100.929-64.0967 92.5967-68.7207 83.1035-68.7207C73.2388-68.7207 63.2803-62.9702 63.2803-52.8057C63.2803-43.4975 71.1821-38.8281 80.1665-36.2524L86.4927-34.4648C94.8247-32.104 102.037-28.2344 102.037-19.5434C102.037-9.97609 93.2183-5.08694 83.3477-5.08694C73.1739-5.08694 64.9854-10.4087 64.1949-20.7197C64.1119-21.4219 63.6914-21.8843 62.9439-21.8843C62.1826-21.8843 61.71-21.3628 61.71-20.6015C61.71-19.9565 61.7622-19.584 61.8633-18.9424C63.5122-8.27293 72.752-2.78954 83.2988-2.78954ZM83.1875 6.92481C83.7998 6.92481 84.2486 6.52491 84.2486 5.90917L84.2486-76.3716C84.2486-77.0327 83.7998-77.4326 83.1875-77.4326C82.6138-77.4326 82.1685-77.0327 82.1685-76.3716L82.1685 5.90917C82.1685 6.52491 82.6138 6.92481 83.1875 6.92481Z"/>
  </g>
 </g>
</svg>
