<?xml version="1.0" encoding="UTF-8" standalone="no"?>
<!-- Created with Inkscape (http://www.inkscape.org/) -->

<svg
   width="22.973322mm"
   height="22.658949mm"
   viewBox="0 0 22.973322 22.658949"
   version="1.1"
   id="svg1"
   inkscape:version="1.4.3 (0d15f750, 2025-12-25)"
   sodipodi:docname="ajustes.svg"
   xmlns:inkscape="http://www.inkscape.org/namespaces/inkscape"
   xmlns:sodipodi="http://sodipodi.sourceforge.net/DTD/sodipodi-0.dtd"
   xmlns="http://www.w3.org/2000/svg"
   xmlns:svg="http://www.w3.org/2000/svg">
  <sodipodi:namedview
     id="namedview1"
     pagecolor="#ffffff"
     bordercolor="#000000"
     borderopacity="0.25"
     inkscape:showpageshadow="2"
     inkscape:pageopacity="0.0"
     inkscape:pagecheckerboard="0"
     inkscape:deskcolor="#d1d1d1"
     inkscape:document-units="mm"
     inkscape:zoom="0.89887065"
     inkscape:cx="-139.06339"
     inkscape:cy="38.381496"
     inkscape:window-width="1024"
     inkscape:window-height="1186"
     inkscape:window-x="0"
     inkscape:window-y="30"
     inkscape:window-maximized="0"
     inkscape:current-layer="layer1" />
  <defs
     id="defs1" />
  <g
     inkscape:label="Layer 1"
     inkscape:groupmode="layer"
     id="layer1"
     transform="translate(-141.81666,-138.37715)">
    <path
       class="monochrome-0 multicolor-0:systemGrayColor hierarchical-0:primary SFSymbolsPreviewWireframe"
       d="m 153.30331,159.53796 c 0.23254,0 0.47799,-0.0129 0.71054,-0.0258 l 0.56845,1.09812 c 0.14211,0.2713 0.41341,0.38758 0.69763,0.34882 0.31006,-0.0517 0.50385,-0.2713 0.54261,-0.56844 l 0.18087,-1.2144 c 0.46508,-0.14211 0.8914,-0.31006 1.33066,-0.49093 l 0.90432,0.82683 c 0.20672,0.2067 0.51679,0.23254 0.77515,0.0904 0.27131,-0.15503 0.38759,-0.42633 0.32298,-0.72347 l -0.2713,-1.20148 c 0.38759,-0.28422 0.74932,-0.58136 1.08521,-0.90433 l 1.13689,0.46508 c 0.28422,0.11627 0.56843,0.0388 0.77515,-0.19378 0.19378,-0.23255 0.20669,-0.52968 0.0517,-0.77514 l -0.6718,-1.04646 c 0.2713,-0.4005 0.50385,-0.80097 0.71056,-1.22732 l 1.2273,0.0517 c 0.31007,0.0129 0.55552,-0.1421 0.65889,-0.43923 0.11626,-0.28422 0.0258,-0.56843 -0.21963,-0.7493 l -0.98184,-0.74933 c 0.11626,-0.45217 0.19378,-0.91726 0.24545,-1.39525 l 1.17563,-0.37465 c 0.29715,-0.0904 0.46511,-0.32298 0.46511,-0.63304 0,-0.31007 -0.16796,-0.54261 -0.46511,-0.63305 l -1.17563,-0.37465 c -0.0517,-0.47799 -0.12919,-0.9431 -0.24545,-1.39525 l 0.98184,-0.74933 c 0.24546,-0.18087 0.31007,-0.46508 0.23254,-0.7493 -0.11628,-0.31006 -0.37465,-0.45217 -0.6718,-0.43926 l -1.2273,0.0388 c -0.20671,-0.42632 -0.43926,-0.82682 -0.71056,-1.22729 l 0.6718,-1.03354 c 0.15502,-0.24546 0.1292,-0.54261 -0.0388,-0.77515 -0.21963,-0.24546 -0.50384,-0.31007 -0.78806,-0.19378 l -1.13689,0.46508 c -0.33589,-0.33589 -0.71054,-0.63304 -1.08521,-0.90435 l 0.2713,-1.20147 c 0.0646,-0.29713 -0.0517,-0.56843 -0.31004,-0.72345 -0.2713,-0.15505 -0.58137,-0.11628 -0.78809,0.0904 l -0.91725,0.82682 c -0.42633,-0.19378 -0.86556,-0.3488 -1.33067,-0.49091 l -0.16793,-1.21441 c -0.0388,-0.29712 -0.23255,-0.50384 -0.5297,-0.56843 -0.31004,-0.0517 -0.56843,0.0775 -0.71054,0.34883 l -0.56845,1.0981 c -0.23255,-0.0129 -0.478,-0.0258 -0.71054,-0.0258 -0.23255,0 -0.46509,0.0129 -0.71054,0.0258 l -0.56846,-1.0981 c -0.14211,-0.27131 -0.4005,-0.38759 -0.69763,-0.34883 -0.31006,0.0517 -0.50384,0.27131 -0.5426,0.56843 l -0.18087,1.21441 c -0.45218,0.14211 -0.89141,0.31007 -1.31773,0.49091 l -0.90435,-0.82682 c -0.21963,-0.20669 -0.51676,-0.23254 -0.78806,-0.0904 -0.2713,0.15502 -0.37465,0.42632 -0.31007,0.72345 l 0.2584,1.21441 c -0.38759,0.27131 -0.74933,0.56843 -1.08522,0.90432 l -1.13689,-0.47799 c -0.2713,-0.11629 -0.56843,-0.0388 -0.76221,0.19378 -0.20672,0.23254 -0.21963,0.52969 -0.0517,0.77515 l 0.65889,1.04645 c -0.25839,0.4005 -0.50384,0.80097 -0.71056,1.22732 l -1.21439,-0.0517 c -0.31006,-0.0129 -0.55552,0.14214 -0.65887,0.43926 -0.11628,0.28422 -0.0258,0.56843 0.2067,0.7493 l 0.98184,0.74933 c -0.11625,0.45215 -0.19378,0.91726 -0.24545,1.39525 l -1.17564,0.37465 c -0.29714,0.0904 -0.46508,0.32298 -0.46508,0.63305 0,0.31006 0.16794,0.5426 0.46508,0.63304 l 1.17564,0.37465 c 0.0517,0.47799 0.1292,0.94308 0.24545,1.39525 l -0.98184,0.74933 c -0.23254,0.18087 -0.31006,0.46508 -0.21962,0.7493 0.11627,0.31006 0.36173,0.45217 0.65888,0.43923 l 1.2273,-0.0387 c 0.20672,0.42632 0.45217,0.82682 0.71056,1.22729 l -0.65889,1.03355 c -0.16793,0.24546 -0.14211,0.55551 0.0388,0.77514 0.20672,0.24546 0.50385,0.31005 0.77515,0.19378 l 1.13689,-0.478 c 0.33589,0.34881 0.71054,0.64595 1.08522,0.91725 l -0.2584,1.20148 c -0.0646,0.29714 0.0388,0.56844 0.29713,0.72347 0.28424,0.15503 0.58137,0.11627 0.801,-0.0904 l 0.91726,-0.82683 c 0.41341,0.19379 0.86558,0.34882 1.31776,0.49093 l 0.16793,1.2144 c 0.0388,0.29714 0.24545,0.50384 0.52969,0.56844 0.31004,0.0517 0.56843,-0.0775 0.71054,-0.34882 l 0.56846,-1.09812 c 0.24545,0.0129 0.47799,0.0258 0.71054,0.0258 z m 0,-1.92495 c -4.36666,0 -7.90649,-3.53984 -7.90649,-7.90649 0,-4.36666 3.53983,-7.90649 7.90649,-7.90649 4.36665,0 7.90649,3.53983 7.90649,7.90649 0,4.36665 -3.53984,7.90649 -7.90649,7.90649 z m -1.8991,-9.48262 1.35649,-0.85267 -3.34605,-5.73609 -1.42111,0.78806 z m 4.25037,2.36419 h 6.66626 v -1.57613 h -6.66626 z m -2.90679,1.6924 -1.33067,-0.8914 -3.53984,5.77482 1.39526,0.81391 z m 0.55552,0.31007 c 1.53736,0 2.79053,-1.25317 2.79053,-2.79053 0,-1.53739 -1.25317,-2.79054 -2.79053,-2.79054 -1.53736,0 -2.7776,1.25315 -2.7776,2.79054 0,1.53736 1.24024,2.79053 2.7776,2.79053 z m 0,-1.73117 c -0.58137,0 -1.05937,-0.478 -1.05937,-1.05936 0,-0.58137 0.478,-1.05937 1.05937,-1.05937 0.58137,0 1.05936,0.478 1.05936,1.05937 0,0.58136 -0.47799,1.05936 -1.05936,1.05936 z"
       id="path32"
       style="fill:#1a1a1a;stroke:#000000;stroke-width:0.132292" />
  </g>
</svg>
