<?xml version="1.0" encoding="UTF-8" standalone="no"?>
<!-- Created with Inkscape (http://www.inkscape.org/) -->

<svg
   width="20.38945mm"
   height="18.968351mm"
   viewBox="0 0 20.38945 18.968351"
   version="1.1"
   id="svg1"
   inkscape:version="1.4.3 (0d15f750, 2025-12-25)"
   sodipodi:docname="calendario.svg"
   xmlns:inkscape="http://www.inkscape.org/namespaces/inkscape"
   xmlns:sodipodi="http://sodipodi.sourceforge.net/DTD/sodipodi-0.dtd"
   xmlns="http://www.w3.org/2000/svg"
   xmlns:svg="http://www.w3.org/2000/svg">
  <sodipodi:namedview
     id="namedview1"
     pagecolor="#ffffff"
     bordercolor="#000000"
     borderopacity="0.25"
     inkscape:showpageshadow="2"
     inkscape:pageopacity="0.0"
     inkscape:pagecheckerboard="0"
     inkscape:deskcolor="#d1d1d1"
     inkscape:document-units="mm"
     inkscape:zoom="0.89887065"
     inkscape:cx="37.825242"
     inkscape:cy="36.156481"
     inkscape:window-width="1024"
     inkscape:window-height="1186"
     inkscape:window-x="0"
     inkscape:window-y="30"
     inkscape:window-maximized="0"
     inkscape:current-layer="layer1" />
  <defs
     id="defs1" />
  <g
     inkscape:label="Layer 1"
     inkscape:groupmode="layer"
     id="layer1"
     transform="translate(-94.985416,-138.90625)">
    <path
       class="monochrome-0 multicolor-0:tintColor hierarchical-0:tertiary SFSymbolsPreviewWireframe"
       d="m 98.345937,157.80846 h 13.668423 c 2.20917,0 3.29436,-1.0852 3.29436,-3.25562 v -12.32482 c 0,-2.17041 -1.08519,-3.25562 -3.29436,-3.25562 H 98.345937 c -2.196253,0 -3.294375,1.08521 -3.294375,3.25562 v 12.32482 c 0,2.17042 1.098122,3.25562 3.294375,3.25562 z m -0.180869,-1.87327 c -0.800973,0 -1.253146,-0.42633 -1.253146,-1.26607 v -9.71518 c 0,-0.83973 0.452173,-1.26606 1.253146,-1.26606 H 112.1823 c 0.801,0 1.26608,0.42633 1.26608,1.26606 v 9.71518 c 0,0.83974 -0.46508,1.26607 -1.26608,1.26607 z m 5.051372,-8.59122 h 0.59428 c 0.38756,0 0.51676,-0.12917 0.51676,-0.50384 v -0.59426 c 0,-0.37467 -0.1292,-0.50384 -0.51676,-0.50384 h -0.59428 c -0.37465,0 -0.50385,0.12917 -0.50385,0.50384 v 0.59426 c 0,0.37467 0.1292,0.50384 0.50385,0.50384 z m 3.33314,0 h 0.59428 c 0.37465,0 0.50382,-0.12917 0.50382,-0.50384 v -0.59426 c 0,-0.37467 -0.12917,-0.50384 -0.50382,-0.50384 h -0.59428 c -0.38759,0 -0.51678,0.12917 -0.51678,0.50384 v 0.59426 c 0,0.37467 0.12919,0.50384 0.51678,0.50384 z m 3.3202,0 h 0.59429 c 0.37465,0 0.51675,-0.12917 0.51675,-0.50384 v -0.59426 c 0,-0.37467 -0.1421,-0.50384 -0.51675,-0.50384 h -0.59429 c -0.38758,0 -0.51675,0.12917 -0.51675,0.50384 v 0.59426 c 0,0.37467 0.12917,0.50384 0.51675,0.50384 z m -9.973544,3.26856 h 0.594284 c 0.38756,0 0.51675,-0.1292 0.51675,-0.50385 v -0.59428 c 0,-0.37465 -0.12919,-0.50384 -0.51675,-0.50384 h -0.594284 c -0.37465,0 -0.516784,0.12919 -0.516784,0.50384 v 0.59428 c 0,0.37465 0.142134,0.50385 0.516784,0.50385 z m 3.320204,0 h 0.59428 c 0.38756,0 0.51676,-0.1292 0.51676,-0.50385 v -0.59428 c 0,-0.37465 -0.1292,-0.50384 -0.51676,-0.50384 h -0.59428 c -0.37465,0 -0.50385,0.12919 -0.50385,0.50384 v 0.59428 c 0,0.37465 0.1292,0.50385 0.50385,0.50385 z m 3.33314,0 h 0.59428 c 0.37465,0 0.50382,-0.1292 0.50382,-0.50385 v -0.59428 c 0,-0.37465 -0.12917,-0.50384 -0.50382,-0.50384 h -0.59428 c -0.38759,0 -0.51678,0.12919 -0.51678,0.50384 v 0.59428 c 0,0.37465 0.12919,0.50385 0.51678,0.50385 z m 3.3202,0 h 0.59429 c 0.37465,0 0.51675,-0.1292 0.51675,-0.50385 v -0.59428 c 0,-0.37465 -0.1421,-0.50384 -0.51675,-0.50384 h -0.59429 c -0.38758,0 -0.51675,0.12919 -0.51675,0.50384 v 0.59428 c 0,0.37465 0.12917,0.50385 0.51675,0.50385 z m -9.973544,3.26853 h 0.594284 c 0.38756,0 0.51675,-0.1292 0.51675,-0.50385 v -0.59428 c 0,-0.37465 -0.12919,-0.50384 -0.51675,-0.50384 h -0.594284 c -0.37465,0 -0.516784,0.12919 -0.516784,0.50384 v 0.59428 c 0,0.37465 0.142134,0.50385 0.516784,0.50385 z m 3.320204,0 h 0.59428 c 0.38756,0 0.51676,-0.1292 0.51676,-0.50385 v -0.59428 c 0,-0.37465 -0.1292,-0.50384 -0.51676,-0.50384 h -0.59428 c -0.37465,0 -0.50385,0.12919 -0.50385,0.50384 v 0.59428 c 0,0.37465 0.1292,0.50385 0.50385,0.50385 z m 3.33314,0 h 0.59428 c 0.37465,0 0.50382,-0.1292 0.50382,-0.50385 v -0.59428 c 0,-0.37465 -0.12917,-0.50384 -0.50382,-0.50384 h -0.59428 c -0.38759,0 -0.51678,0.12919 -0.51678,0.50384 v 0.59428 c 0,0.37465 0.12919,0.50385 0.51678,0.50385 z"
       id="path32"
       style="fill:#1a1a1a;stroke:#000000;stroke-width:0.132292" />
  </g>
</svg>
