<?xml version="1.0" encoding="UTF-8" standalone="no"?>
<!-- Created with Inkscape (http://www.inkscape.org/) -->

<svg
   width="20.99666mm"
   height="20.98373mm"
   viewBox="0 0 20.99666 20.98373"
   version="1.1"
   id="svg1"
   inkscape:version="1.4.3 (0d15f750, 2025-12-25)"
   sodipodi:docname="clock.svg"
   xmlns:inkscape="http://www.inkscape.org/namespaces/inkscape"
   xmlns:sodipodi="http://sodipodi.sourceforge.net/DTD/sodipodi-0.dtd"
   xmlns="http://www.w3.org/2000/svg"
   xmlns:svg="http://www.w3.org/2000/svg">
  <sodipodi:namedview
     id="namedview1"
     pagecolor="#ffffff"
     bordercolor="#000000"
     borderopacity="0.25"
     inkscape:showpageshadow="2"
     inkscape:pageopacity="0.0"
     inkscape:pagecheckerboard="0"
     inkscape:deskcolor="#d1d1d1"
     inkscape:document-units="mm"
     inkscape:zoom="0.89887065"
     inkscape:cx="60.631638"
     inkscape:cy="-225.28269"
     inkscape:window-width="1171"
     inkscape:window-height="1186"
     inkscape:window-x="0"
     inkscape:window-y="30"
     inkscape:window-maximized="0"
     inkscape:current-layer="Regular-S" />
  <defs
     id="defs1" />
  <g
     inkscape:label="Layer 1"
     inkscape:groupmode="layer"
     id="layer1"
     transform="translate(-105.30418,-207.9625)">
    <g
       id="Regular-S"
       transform="matrix(0.26458333,0,0,0.26458333,103.56165,227.78196)">
      <path
         class="monochrome-0 multicolor-0:systemOrangeColor hierarchical-0:secondary SFSymbolsPreviewWireframe"
         d="m 46.2402,4.15039 c 21.7774,0 39.4532,-17.62699 39.4532,-39.40429 0,-21.7773 -17.6758,-39.4043 -39.4532,-39.4043 -21.7285,0 -39.40426,17.627 -39.40426,39.4043 0,21.7773 17.67576,39.40429 39.40426,39.40429 z m 0,-7.42187 c -17.6757,0 -31.9336,-14.30662 -31.9336,-31.98242 0,-17.6758 14.2579,-31.9824 31.9336,-31.9824 17.6758,0 31.9825,14.3066 31.9825,31.9824 0,17.6758 -14.3067,31.98242 -31.9825,31.98242 z"
         id="path33"
         style="opacity:1;fill:#ffffff;stroke:#c4c4c4;stroke-width:0.5;stroke-opacity:1" />
      <path
         class="monochrome-1 multicolor-1:labelColor hierarchical-1:primary SFSymbolsPreviewWireframe"
         d="m 26.709,-30.9082 h 19.4824 c 1.709,0 3.0274,-1.3184 3.0274,-2.9785 v -25.1465 c 0,-1.709 -1.3184,-3.0273 -3.0274,-3.0273 -1.6602,0 -2.9785,1.3183 -2.9785,3.0273 v 22.1191 H 26.709 c -1.709,0 -2.9785,1.3184 -2.9785,3.0274 0,1.6601 1.2695,2.9785 2.9785,2.9785 z"
         id="path34"
         style="opacity:1;fill:#e8e8e8;stroke:#989898;stroke-width:0.5;stroke-opacity:1;fill-opacity:1" />
    </g>
  </g>
</svg>
