<?xml version="1.0" encoding="UTF-8" standalone="no"?>
<!-- Created with Inkscape (http://www.inkscape.org/) -->

<svg
   width="20.996662mm"
   height="20.98373mm"
   viewBox="0 0 20.996662 20.98373"
   version="1.1"
   id="svg1"
   inkscape:version="1.4.3 (0d15f750, 2025-12-25)"
   sodipodi:docname="help.svg"
   xmlns:inkscape="http://www.inkscape.org/namespaces/inkscape"
   xmlns:sodipodi="http://sodipodi.sourceforge.net/DTD/sodipodi-0.dtd"
   xmlns="http://www.w3.org/2000/svg"
   xmlns:svg="http://www.w3.org/2000/svg">
  <sodipodi:namedview
     id="namedview1"
     pagecolor="#ffffff"
     bordercolor="#000000"
     borderopacity="0.25"
     inkscape:showpageshadow="2"
     inkscape:pageopacity="0.0"
     inkscape:pagecheckerboard="0"
     inkscape:deskcolor="#d1d1d1"
     inkscape:document-units="mm"
     inkscape:zoom="0.89887065"
     inkscape:cx="26.143917"
     inkscape:cy="39.494003"
     inkscape:window-width="1024"
     inkscape:window-height="1186"
     inkscape:window-x="531"
     inkscape:window-y="37"
     inkscape:window-maximized="0"
     inkscape:current-layer="layer1" />
  <defs
     id="defs1" />
  <g
     inkscape:label="Layer 1"
     inkscape:groupmode="layer"
     id="layer1"
     transform="translate(10.054167,5.0270832)">
    <path
       class="monochrome-1 multicolor-1:systemOrangeColor hierarchical-1:primary SFSymbolsPreviewWireframe"
       d="m 104.70213,150.62129 c 0.58135,0 0.93017,-0.36174 0.93017,-0.81392 0,-0.0258 0,-0.0517 0,-0.0775 0,-0.54261 0.33589,-0.89144 1.02061,-1.34361 0.95602,-0.6201 1.73117,-1.21438 1.73117,-2.49338 0,-1.78284 -1.58907,-2.68716 -3.34606,-2.68716 -1.78284,0 -2.95846,0.80097 -3.26853,1.69238 -0.0646,0.18087 -0.10334,0.36174 -0.10334,0.54261 0,0.50384 0.41341,0.77515 0.78806,0.77515 0.38756,0 0.6201,-0.16793 0.83973,-0.43924 l 0.21963,-0.25839 c 0.43926,-0.54261 0.89141,-0.76224 1.44693,-0.76224 0.85267,0 1.40819,0.49094 1.40819,1.22733 0,0.68471 -0.43923,0.99478 -1.30482,1.58906 -0.69762,0.4909 -1.29191,1.03351 -1.29191,2.06705 0,0.0129 0,0.0517 0,0.0646 0,0.60719 0.32298,0.91726 0.93017,0.91726 z m -0.0258,3.1006 c 0.62013,0 1.17565,-0.50385 1.17565,-1.13689 0,-0.64596 -0.5426,-1.13689 -1.17565,-1.13689 -0.64595,0 -1.18856,0.50385 -1.18856,1.13689 0,0.6201 0.55555,1.13689 1.18856,1.13689 z"
       id="path34"
       style="fill:none;stroke:#000000;stroke-width:0.132292" />
    <path
       class="monochrome-0 multicolor-0:systemOrangeColor hierarchical-0:secondary SFSymbolsPreviewWireframe"
       d="m 0.4376891,15.890502 c 5.761937,0 10.4386589,-4.663808 10.4386589,-10.4257183 0,-5.76191051 -4.6767219,-10.4257209 -10.4386589,-10.4257209 -5.7489989,0 -10.4257103,4.66381039 -10.4257103,10.4257209 0,5.7619103 4.6767114,10.4257183 10.4257103,10.4257183 z m 0,-1.963703 c -4.6766956,0 -8.4490982,-3.785293 -8.4490982,-8.4620153 0,-4.67672198 3.7724026,-8.4620099 8.4490982,-8.4620099 4.676722,0 8.4620363,3.78528792 8.4620363,8.4620099 0,4.6767223 -3.7853143,8.4620153 -8.4620363,8.4620153 z"
       id="path33"
       style="fill:none;stroke:#000000;stroke-width:0.132292" />
    <path
       class="monochrome-1 multicolor-1:systemOrangeColor hierarchical-1:primary SFSymbolsPreviewWireframe"
       d="m 0.2309966,7.5835141 c 0.58134249,0 0.9301692,-0.3617383 0.9301692,-0.8139112 0,-0.025823 0,-0.051673 0,-0.077496 0,-0.5426075 0.3358885,-0.8914341 1.0206037,-1.343607 0.9560189,-0.620104 1.7311687,-1.2143846 1.7311687,-2.4933804 0,-1.7828419 -1.589061,-2.68716123 -3.34605306,-2.68716123 -1.78284184,0 -2.95846494,0.80097311 -3.26853014,1.69238083 -0.064585,0.1808691 -0.1033463,0.3617383 -0.1033463,0.5426075 0,0.503846 0.4134115,0.7751498 0.7880615,0.7751498 0.3875616,0 0.6201039,-0.1679311 0.8397345,-0.4392348 L -0.95756464,2.480469 c 0.43926125,-0.5426075 0.8914077,-0.7622381 1.44692686,-0.7622381 0.85267268,0 1.40819188,0.4909343 1.40819188,1.2273227 0,0.6847152 -0.4392348,0.9947804 -1.30481917,1.589061 -0.69762687,0.4909079 -1.29190749,1.0335154 -1.29190749,2.0670573 0,0.012912 0,0.051673 0,0.064585 0,0.6071923 0.32297687,0.9172575 0.93016916,0.9172572 z M 0.2051468,10.684113 c 0.62013041,0 1.1756496,-0.503846 1.1756496,-1.1368879 0,-0.6459537 -0.54260753,-1.1368881 -1.1756496,-1.1368881 -0.64595374,0 -1.18856124,0.5038461 -1.18856124,1.1368881 0,0.6201039 0.55554562,1.1368879 1.18856124,1.1368879 z"
       id="path34-9"
       style="fill:none;stroke:#000000;stroke-width:0.132292" />
  </g>
</svg>
