<?xml version="1.0" encoding="UTF-8" standalone="no"?>
<!-- Created with Inkscape (http://www.inkscape.org/) -->

<svg
   width="19.735415mm"
   height="22.728117mm"
   viewBox="0 0 19.735415 22.728117"
   version="1.1"
   id="svg1"
   inkscape:version="1.4.3 (0d15f750, 2025-12-25)"
   sodipodi:docname="lixo.svg"
   xmlns:inkscape="http://www.inkscape.org/namespaces/inkscape"
   xmlns:sodipodi="http://sodipodi.sourceforge.net/DTD/sodipodi-0.dtd"
   xmlns="http://www.w3.org/2000/svg"
   xmlns:svg="http://www.w3.org/2000/svg">
  <sodipodi:namedview
     id="namedview1"
     pagecolor="#ffffff"
     bordercolor="#000000"
     borderopacity="0.25"
     inkscape:showpageshadow="2"
     inkscape:pageopacity="0.0"
     inkscape:pagecheckerboard="0"
     inkscape:deskcolor="#d1d1d1"
     inkscape:document-units="mm"
     inkscape:zoom="3.5954826"
     inkscape:cx="44.083095"
     inkscape:cy="52.705025"
     inkscape:window-width="1171"
     inkscape:window-height="1186"
     inkscape:window-x="0"
     inkscape:window-y="30"
     inkscape:window-maximized="0"
     inkscape:current-layer="layer1" />
  <defs
     id="defs1" />
  <g
     inkscape:label="Layer 1"
     inkscape:groupmode="layer"
     id="layer1"
     transform="translate(-95.180724,-137.24947)">
    <g
       id="Ultralight-S"
       transform="matrix(0.26458333,0,0,0.26458333,94.03043,158.64948)"
       style="fill:#ff2a2a;fill-opacity:1">
      <path
         class="monochrome-0 multicolor-0:systemRedColor hierarchical-0:primary SFSymbolsPreviewWireframe"
         d="m 30.0684,-7.54591 c 0.6611,0 1.0088,-0.43506 1.0054,-0.99513 l -1.441,-44.85246 c -0.0034,-0.5635 -0.4873,-0.9043 -1.0053,-0.9043 -0.6124,0 -1.0088,0.3442 -1.0054,0.9951 l 1.4409,44.80707 c 0.0034,0.56349 0.3965,0.94972 1.0054,0.94972 z m 11.5971,0 c 0.6158,0 1.0123,-0.38965 1.0123,-0.99513 V -53.3027 c 0,-0.6055 -0.3965,-0.9951 -1.0123,-0.9951 -0.5703,0 -1.0122,0.3896 -1.0122,0.9951 v 44.76166 c 0,0.60548 0.4419,0.99513 1.0122,0.99513 z m 11.5552,0.09082 c 0.6509,0 1.0474,-0.43164 1.0508,-0.99513 L 55.709,-53.2573 c 0.0034,-0.6509 -0.4351,-0.9951 -1.0054,-0.9951 -0.5635,0 -1.0474,0.3442 -1.0508,0.9043 l -1.4375,44.85247 c -0.0034,0.56007 0.3897,1.04054 1.0054,1.04054 z M 26.0776,-64.2588 h 2.211 v -7.9761 c 0,-3.1372 2.0064,-4.955 5.4194,-4.955 h 15.8662 c 3.4551,0 5.4614,1.8178 5.4614,4.955 v 7.9761 H 57.25 v -8.0102 c 0,-4.4449 -2.897,-7.1011 -7.7324,-7.1011 H 33.7612 c -4.7866,0 -7.6836,2.6562 -7.6836,7.1011 z M 6.99318,-63.1533 H 76.3379 c 0.626,0 1.0884,-0.5112 1.0884,-1.0918 0,-0.6714 -0.5112,-1.0918 -1.0884,-1.0918 H 6.99318 c -0.57374,0 -1.1338,0.4658 -1.1338,1.0918 0,0.626 0.56006,1.0918 1.1338,1.0918 z M 24.6743,3.50782 h 33.9859 c 3.9487,0 7.2998,-3.159186 7.5019,-7.02053 l 3.1748,-60.19139 h -2.3506 l -3.1225,60.00389 c -0.1431,2.742179 -2.4707,5.0244 -5.3003,5.0244 H 24.6734 c -2.7774,0 -5.1084,-2.28564 -5.2515,-5.0244 L 16.2437,-63.6587 h -2.2496 l 3.2237,60.14941 c 0.2021,3.861342 3.5009,7.01711 7.4565,7.01711 z"
         id="path33"
         style="display:inline;opacity:1;mix-blend-mode:color-burn;fill:#ffffff;fill-opacity:1;stroke:#ffffff;stroke-width:3.02362;stroke-dasharray:none;stroke-opacity:1" />
    </g>
  </g>
</svg>
