<?xml version="1.0" encoding="UTF-8" standalone="no"?>
<!-- Created with Inkscape (http://www.inkscape.org/) -->

<svg
   width="20.99666mm"
   height="20.98373mm"
   viewBox="0 0 20.99666 20.98373"
   version="1.1"
   id="svg1"
   inkscape:version="1.4.3 (0d15f750, 2025-12-25)"
   sodipodi:docname="plus.svg"
   xmlns:inkscape="http://www.inkscape.org/namespaces/inkscape"
   xmlns:sodipodi="http://sodipodi.sourceforge.net/DTD/sodipodi-0.dtd"
   xmlns="http://www.w3.org/2000/svg"
   xmlns:svg="http://www.w3.org/2000/svg">
  <sodipodi:namedview
     id="namedview1"
     pagecolor="#ffffff"
     bordercolor="#000000"
     borderopacity="0.25"
     inkscape:showpageshadow="2"
     inkscape:pageopacity="0.0"
     inkscape:pagecheckerboard="0"
     inkscape:deskcolor="#d1d1d1"
     inkscape:document-units="mm"
     inkscape:zoom="0.89887065"
     inkscape:cx="187.45745"
     inkscape:cy="162.98229"
     inkscape:window-width="1024"
     inkscape:window-height="1186"
     inkscape:window-x="548"
     inkscape:window-y="96"
     inkscape:window-maximized="0"
     inkscape:current-layer="layer1" />
  <defs
     id="defs1" />
  <g
     inkscape:label="Layer 1"
     inkscape:groupmode="layer"
     id="layer1"
     transform="translate(-78.31668,-105.30416)">
    <g
       id="Regular-S"
       transform="matrix(0.26458333,0,0,0.26458333,76.57415,125.12362)">
      <path
         class="monochrome-0 multicolor-0:systemGreenColor hierarchical-0:secondary SFSymbolsPreviewWireframe"
         d="m 46.2402,4.15039 c 21.7774,0 39.4532,-17.62699 39.4532,-39.40429 0,-21.7773 -17.6758,-39.4043 -39.4532,-39.4043 -21.7285,0 -39.40426,17.627 -39.40426,39.4043 0,21.7773 17.67576,39.40429 39.40426,39.40429 z m 0,-7.42187 c -17.6757,0 -31.9336,-14.30662 -31.9336,-31.98242 0,-17.6758 14.2579,-31.9824 31.9336,-31.9824 17.6758,0 31.9825,14.3066 31.9825,31.9824 0,17.6758 -14.3067,31.98242 -31.9825,31.98242 z"
         id="path33"
         style="opacity:1;fill:none;stroke:#000000;stroke-width:0.5" />
      <path
         class="monochrome-1 multicolor-1:systemGreenColor hierarchical-1:primary SFSymbolsPreviewWireframe"
         d="m 28.2715,-35.2539 c 0,2.1484 1.5137,3.6133 3.7597,3.6133 h 10.4981 v 10.5957 c 0,2.1972 1.4648,3.7109 3.6133,3.7109 2.2461,0 3.7109,-1.5137 3.7109,-3.7109 v -10.5957 h 10.5957 c 2.1973,0 3.711,-1.4649 3.711,-3.6133 0,-2.1973 -1.5137,-3.7109 -3.711,-3.7109 H 49.8535 v -10.5469 c 0,-2.2461 -1.4648,-3.7598 -3.7109,-3.7598 -2.1485,0 -3.6133,1.5137 -3.6133,3.7598 v 10.5469 H 32.0312 c -2.246,0 -3.7597,1.5136 -3.7597,3.7109 z"
         id="path34"
         style="opacity:1;fill:none;stroke:#000000;stroke-width:0.5" />
    </g>
  </g>
</svg>
