<?xml version="1.0" encoding="UTF-8" standalone="no"?>
<!-- Created with Inkscape (http://www.inkscape.org/) -->

<svg
   width="19.8727mm"
   height="22.805319mm"
   viewBox="0 0 19.8727 22.805319"
   version="1.1"
   id="svg1"
   inkscape:version="1.4.3 (0d15f750, 2025-12-25)"
   sodipodi:docname="trash.svg"
   xmlns:inkscape="http://www.inkscape.org/namespaces/inkscape"
   xmlns:sodipodi="http://sodipodi.sourceforge.net/DTD/sodipodi-0.dtd"
   xmlns="http://www.w3.org/2000/svg"
   xmlns:svg="http://www.w3.org/2000/svg">
  <sodipodi:namedview
     id="namedview1"
     pagecolor="#ffffff"
     bordercolor="#000000"
     borderopacity="0.25"
     inkscape:showpageshadow="2"
     inkscape:pageopacity="0.0"
     inkscape:pagecheckerboard="0"
     inkscape:deskcolor="#d1d1d1"
     inkscape:document-units="mm"
     inkscape:zoom="0.89887065"
     inkscape:cx="27.256424"
     inkscape:cy="-152.96973"
     inkscape:window-width="1024"
     inkscape:window-height="1186"
     inkscape:window-x="0"
     inkscape:window-y="30"
     inkscape:window-maximized="0"
     inkscape:current-layer="layer1" />
  <defs
     id="defs1" />
  <g
     inkscape:label="Layer 1"
     inkscape:groupmode="layer"
     id="layer1"
     transform="translate(-97.631237,-189.97083)">
    <g
       id="Ultralight-S"
       transform="matrix(0.26458333,0,0,0.26458333,94.03043,158.64948)"
       style="fill:#00ff00">
      <path
         class="monochrome-0 multicolor-0:systemRedColor hierarchical-0:primary SFSymbolsPreviewWireframe"
         d="m 30.0684,-7.54591 c 0.6611,0 1.0088,-0.43506 1.0054,-0.99513 l -1.441,-44.85246 c -0.0034,-0.5635 -0.4873,-0.9043 -1.0053,-0.9043 -0.6124,0 -1.0088,0.3442 -1.0054,0.9951 l 1.4409,44.80707 c 0.0034,0.56349 0.3965,0.94972 1.0054,0.94972 z m 11.5971,0 c 0.6158,0 1.0123,-0.38965 1.0123,-0.99513 V -53.3027 c 0,-0.6055 -0.3965,-0.9951 -1.0123,-0.9951 -0.5703,0 -1.0122,0.3896 -1.0122,0.9951 v 44.76166 c 0,0.60548 0.4419,0.99513 1.0122,0.99513 z m 11.5552,0.09082 c 0.6509,0 1.0474,-0.43164 1.0508,-0.99513 L 55.709,-53.2573 c 0.0034,-0.6509 -0.4351,-0.9951 -1.0054,-0.9951 -0.5635,0 -1.0474,0.3442 -1.0508,0.9043 l -1.4375,44.85247 c -0.0034,0.56007 0.3897,1.04054 1.0054,1.04054 z M 26.0776,-64.2588 h 2.211 v -7.9761 c 0,-3.1372 2.0064,-4.955 5.4194,-4.955 h 15.8662 c 3.4551,0 5.4614,1.8178 5.4614,4.955 v 7.9761 H 57.25 v -8.0102 c 0,-4.4449 -2.897,-7.1011 -7.7324,-7.1011 H 33.7612 c -4.7866,0 -7.6836,2.6562 -7.6836,7.1011 z M 6.99318,-63.1533 H 76.3379 c 0.626,0 1.0884,-0.5112 1.0884,-1.0918 0,-0.6714 -0.5112,-1.0918 -1.0884,-1.0918 H 6.99318 c -0.57374,0 -1.1338,0.4658 -1.1338,1.0918 0,0.626 0.56006,1.0918 1.1338,1.0918 z M 24.6743,3.50782 h 33.9859 c 3.9487,0 7.2998,-3.159186 7.5019,-7.02053 l 3.1748,-60.19139 h -2.3506 l -3.1225,60.00389 c -0.1431,2.742179 -2.4707,5.0244 -5.3003,5.0244 H 24.6734 c -2.7774,0 -5.1084,-2.28564 -5.2515,-5.0244 L 16.2437,-63.6587 h -2.2496 l 3.2237,60.14941 c 0.2021,3.861342 3.5009,7.01711 7.4565,7.01711 z"
         id="path33"
         style="opacity:1;fill:#00ff00;stroke:#000000;stroke-width:0.5" />
    </g>
    <g
       id="Regular-S"
       transform="matrix(0.26458333,0,0,0.26458333,96.147089,211.63772)"
       style="fill:#cccccc">
      <path
         class="monochrome-0 multicolor-0:systemRedColor hierarchical-0:primary SFSymbolsPreviewWireframe"
         d="m 31.4453,-7.71484 c -1.6113,0 -2.7344,-0.97657 -2.832,-2.63676 l -1.0742,-41.5039 c -0.0489,-1.6113 1.0254,-2.6367 2.7832,-2.6367 1.6113,0 2.7343,0.9766 2.7832,2.6367 l 1.123,41.5039 c 0.0488,1.61137 -1.0742,2.63676 -2.7832,2.63676 z m 11.7188,0 c -1.6602,0 -2.8809,-1.02539 -2.8809,-2.63676 v -41.5039 c 0,-1.6113 1.2207,-2.6367 2.8809,-2.6367 1.7089,0 2.8808,1.0254 2.8808,2.6367 v 41.5039 c 0,1.61137 -1.1719,2.63676 -2.8808,2.63676 z m 11.7187,0 c -1.709,0 -2.832,-1.02539 -2.7832,-2.63676 l 1.1719,-41.5039 c 0,-1.6601 1.1719,-2.6367 2.7344,-2.6367 1.7578,0 2.832,1.0254 2.7832,2.6367 l -1.0743,41.5039 c -0.0976,1.66019 -1.1718,2.63676 -2.832,2.63676 z M 26.123,-63.623 h 6.9336 v -8.2032 c 0,-2.0019 1.4161,-3.3203 3.4668,-3.3203 h 13.2325 c 2.0019,0 3.4179,1.3184 3.4179,3.3203 v 8.2032 h 6.9824 v -8.6915 c 0,-5.7617 -3.7597,-9.3261 -9.9121,-9.3261 H 35.9863 c -6.1035,0 -9.8633,3.5644 -9.8633,9.3261 z M 9.08203,-60.1562 H 77.2461 c 1.8066,0 3.2227,-1.4649 3.2227,-3.2715 0,-1.8067 -1.4649,-3.2715 -3.2227,-3.2715 H 9.08203 c -1.70898,0 -3.22265,1.4648 -3.22265,3.2715 0,1.8066 1.51367,3.2715 3.22265,3.2715 z M 25.5371,4.05273 h 35.3027 c 5.8106,0 9.5704,-3.613277 9.8633,-9.47265 L 73.2422,-60.9375 H 13.0859 l 2.5879,55.56641 c 0.293,5.859371 3.9551,9.42382 9.8633,9.42382 z"
         id="path32"
         style="opacity:1;fill:#cccccc;stroke:#000000;stroke-width:0.5" />
    </g>
  </g>
</svg>
